<?xml version="1.0" encoding="UTF-8" standalone="no"?>
<!-- Created with Inkscape (http://www.inkscape.org/) -->

<svg
   xmlns:dc="http://purl.org/dc/elements/1.1/"
   xmlns:cc="http://creativecommons.org/ns#"
   xmlns:rdf="http://www.w3.org/1999/02/22-rdf-syntax-ns#"
   xmlns:svg="http://www.w3.org/2000/svg"
   xmlns="http://www.w3.org/2000/svg"
   xmlns:xlink="http://www.w3.org/1999/xlink"
   xmlns:sodipodi="http://sodipodi.sourceforge.net/DTD/sodipodi-0.dtd"
   xmlns:inkscape="http://www.inkscape.org/namespaces/inkscape"
   width="23.246365mm"
   height="25.68297mm"
   viewBox="0 0 82.369008 91.002649"
   id="svg4171"
   version="1.1"
   inkscape:version="0.91 r13725"
   sodipodi:docname="tooling.svg">
  <defs
     id="defs4173">
    <linearGradient
       inkscape:collect="always"
       xlink:href="#linearGradient3264"
       id="linearGradient3281"
       gradientUnits="userSpaceOnUse"
       x1="14.462892"
       y1="12.284524"
       x2="34.534348"
       y2="39.684914"
       gradientTransform="matrix(1.241935,0,0,1.241935,515.92339,114.1161)" />
    <linearGradient
       id="linearGradient3264">
      <stop
         style="stop-color:#c9c9c9;stop-opacity:1;"
         offset="0"
         id="stop3266" />
      <stop
         id="stop3276"
         offset="0.25"
         style="stop-color:#f8f8f8;stop-opacity:1;" />
      <stop
         id="stop3272"
         offset="0.5"
         style="stop-color:#e2e2e2;stop-opacity:1;" />
      <stop
         style="stop-color:#b0b0b0;stop-opacity:1;"
         offset="0.75"
         id="stop3274" />
      <stop
         style="stop-color:#c9c9c9;stop-opacity:1;"
         offset="1"
         id="stop3268" />
    </linearGradient>
    <radialGradient
       inkscape:collect="always"
       xlink:href="#linearGradient3256"
       id="radialGradient3262"
       cx="25.455845"
       cy="39.161163"
       fx="25.455845"
       fy="39.161163"
       r="19.622213"
       gradientTransform="matrix(1,0,0,0.315315,493.06701,176.3273)"
       gradientUnits="userSpaceOnUse" />
    <linearGradient
       inkscape:collect="always"
       id="linearGradient3256">
      <stop
         style="stop-color:#000000;stop-opacity:1;"
         offset="0"
         id="stop3258" />
      <stop
         style="stop-color:#000000;stop-opacity:0;"
         offset="1"
         id="stop3260" />
    </linearGradient>
    <linearGradient
       inkscape:collect="always"
       xlink:href="#linearGradient3264"
       id="linearGradient3281-5"
       gradientUnits="userSpaceOnUse"
       x1="14.462892"
       y1="12.284524"
       x2="34.534348"
       y2="39.684914"
       gradientTransform="matrix(1.241935,0,0,1.241935,492.35196,80.187528)" />
    <linearGradient
       inkscape:collect="always"
       xlink:href="#linearGradient3264"
       id="linearGradient3281-8"
       gradientUnits="userSpaceOnUse"
       x1="14.462892"
       y1="12.284524"
       x2="34.534348"
       y2="39.684914"
       gradientTransform="matrix(0.96646875,-0.3279555,0.3279555,0.96646875,487.9467,154.70755)" />
  </defs>
  <sodipodi:namedview
     id="base"
     pagecolor="#ffffff"
     bordercolor="#666666"
     borderopacity="1.0"
     inkscape:pageopacity="0.0"
     inkscape:pageshadow="2"
     inkscape:zoom="1.4"
     inkscape:cx="-53.627971"
     inkscape:cy="10.417985"
     inkscape:document-units="px"
     inkscape:current-layer="layer1"
     showgrid="false"
     fit-margin-top="0"
     fit-margin-left="0"
     fit-margin-right="0"
     fit-margin-bottom="0"
     inkscape:window-width="1920"
     inkscape:window-height="1134"
     inkscape:window-x="0"
     inkscape:window-y="27"
     inkscape:window-maximized="1" />
  <metadata
     id="metadata4176">
    <rdf:RDF>
      <cc:Work
         rdf:about="">
        <dc:format>image/svg+xml</dc:format>
        <dc:type
           rdf:resource="http://purl.org/dc/dcmitype/StillImage" />
        <dc:title></dc:title>
      </cc:Work>
    </rdf:RDF>
  </metadata>
  <g
     inkscape:label="Layer 1"
     inkscape:groupmode="layer"
     id="layer1"
     transform="translate(-485.55063,-104.43136)">
    <path
       inkscape:connector-curvature="0"
       style="color:#000000;display:inline;overflow:visible;visibility:visible;opacity:1;fill:url(#linearGradient3281);fill-opacity:1;fill-rule:nonzero;stroke:#808080;stroke-width:1;stroke-linecap:butt;stroke-linejoin:miter;stroke-miterlimit:4;stroke-dasharray:none;stroke-dashoffset:0;stroke-opacity:1;marker:none;marker-start:none;marker-mid:none;marker-end:none"
       d="m 544.20089,121.79383 c -0.46543,0.0319 -0.91783,0.10394 -1.375,0.15625 l -0.0312,0 -1.09375,5.96875 c -1.78272,0.40599 -3.4599,1.095 -4.96875,2.03125 l -4.90625,-3.53125 c -1.32628,1.0297 -2.53319,2.2306 -3.59375,3.53125 l 3.40625,4.96876 c -1.03423,1.58051 -1.81196,3.38522 -2.25,5.28125 -7e-5,0.009 -6e-5,0.0297 0,0.0312 l -5.9375,0.9375 c -0.10855,0.88663 -0.15625,1.80293 -0.15625,2.71875 0,0.7493 0.0207,1.48858 0.0937,2.21875 l 5.9375,1.0625 c 0.42228,2.06189 1.22446,3.98751 2.34375,5.6875 l -3.53125,4.84375 c 1.01133,1.25551 2.1789,2.39861 3.4375,3.40625 l 5,-3.4375 c 1.74744,1.11471 3.69809,1.89637 5.8125,2.28125 l 0.9375,5.90625 c 0.66619,0.0606 1.34935,0.0625 2.03125,0.0625 0.96269,-1e-5 1.88224,-0.0365 2.8125,-0.15625 l 1.125,-6.03125 c 2.00757,-0.49961 3.89347,-1.36629 5.53125,-2.53125 l 4.8125,3.5 c 1.24803,-1.0618 2.38928,-2.28226 3.375,-3.59375 l -3.5,-5.0625 c 0.94786,-1.63699 1.60463,-3.44315 1.9375,-5.375 l 5.90625,-0.9375 c 0.0518,-0.61635 0.0625,-1.21409 0.0625,-1.84375 0,-1.09422 -0.12718,-2.16709 -0.28125,-3.21875 l -6,-1.09375 c -0.47019,-1.73623 -1.24167,-3.35611 -2.21875,-4.8125 l 3.53125,-4.84376 c -1.09457,-1.3386 -2.34317,-2.57518 -3.71875,-3.625 l -5.09375,3.5 c -1.46399,-0.86583 -3.03946,-1.53018 -4.75,-1.90625 l -0.9375,-5.9375 c -0.85329,-0.10037 -1.71362,-0.15625 -2.59375,-0.15625 -0.23787,0 -0.48268,-0.007 -0.71875,0 -0.11508,0.004 -0.22896,-0.007 -0.34375,0 -0.0311,0.002 -0.0627,-0.002 -0.0937,0 z m 0.8125,15.18751 c 0.11417,-0.006 0.22816,0 0.34375,0 3.69913,0 6.71875,3.01962 6.71875,6.71875 1e-5,3.69912 -3.01962,6.6875 -6.71875,6.6875 -3.69912,0 -6.6875,-2.98838 -6.6875,-6.6875 1e-5,-3.58353 2.8046,-6.53916 6.34375,-6.71875 z"
       id="path3243" />
    <circle
       r="7.7197142"
       cy="143.68588"
       cx="545.36108"
       style="color:#000000;display:inline;overflow:visible;visibility:visible;opacity:0.64772728;fill:none;fill-opacity:1;fill-rule:nonzero;stroke:#ffffff;stroke-width:1;stroke-linecap:butt;stroke-linejoin:miter;stroke-miterlimit:4;stroke-dasharray:none;stroke-dashoffset:0;stroke-opacity:1;marker:none;marker-start:none;marker-mid:none;marker-end:none"
       id="path3283" />
    <path
       inkscape:connector-curvature="0"
       id="path3285"
       d="m 543.50868,122.9752 -0.87819,5.77901 c -1.67099,0.38054 -4.74472,1.54441 -6.159,2.42199 l -4.67203,-3.48719 c -1.24317,0.96516 -1.32843,1.03061 -2.32251,2.24976 l 3.37805,5.00995 c -0.96941,1.48146 -2.1338,4.12149 -2.55187,6.00809 0,0 -5.91941,0.99784 -5.91941,0.99784 -0.10175,0.83106 -0.0528,2.6098 0.0156,3.2942 l 5.65424,1.01858 c 0.39582,1.93267 1.87704,5.04359 2.92618,6.63704 l -3.57558,4.72404 c 0.94795,1.17683 1.13767,1.28452 2.3174,2.22901 l 4.78116,-3.50282 c 1.63792,1.04485 4.88904,2.31588 6.87094,2.67664 l 0.78469,5.70625 c 0.62443,0.0568 2.34948,0.21628 3.22144,0.10402 l 0.87819,-5.94015 c 1.88174,-0.46829 5.13316,-1.80296 6.66829,-2.89491 l 4.77606,3.45081 c 1.16981,-0.99525 1.18029,-1.14522 2.10424,-2.37452 l -3.5392,-5.0307 c 0.88845,-1.5344 2.03723,-4.53522 2.34924,-6.34601 l 5.79464,-0.96146 c 0.0486,-0.57772 0.0509,-2.18879 -0.0935,-3.17455 l -5.90378,-1.01859 c -0.44073,-1.62741 -1.95321,-4.55998 -2.86905,-5.9251 l 3.75235,-4.72404 c -1.02597,-1.25472 -1.40744,-1.42687 -2.6968,-2.4109 l -4.94232,3.5392 c -1.37224,-0.81157 -4.10861,-2.04875 -5.71194,-2.40125 l -0.87308,-5.65424 c -0.79982,-0.0941 -3.10739,-0.0523 -3.56448,0 z"
       style="color:#000000;display:inline;overflow:visible;visibility:visible;opacity:0.34659089;fill:none;fill-opacity:1;fill-rule:nonzero;stroke:#ffffff;stroke-width:0.9999997;stroke-linecap:butt;stroke-linejoin:miter;stroke-miterlimit:4;stroke-dasharray:none;stroke-dashoffset:0;stroke-opacity:1;marker:none;marker-start:none;marker-mid:none;marker-end:none"
       sodipodi:nodetypes="ccccccccccccccccccccccccccccccccc" />
    <g
       id="g4809"
       transform="matrix(0.9573577,-0.28890521,0.28890521,0.9573577,-23.438182,172.21793)">
      <path
         id="path3243-3"
         d="m 520.62947,87.865258 c -0.46544,0.0318 -0.91784,0.10394 -1.375,0.15625 l -0.0312,0 -1.09375,5.96875 c -1.78273,0.40599 -3.45991,1.09499 -4.96875,2.03125 l -4.90625,-3.53125 c -1.32629,1.02969 -2.5332,2.2306 -3.59375,3.53125 l 3.40625,4.968752 c -1.03424,1.58052 -1.81197,3.38523 -2.25,5.28125 -8e-5,0.009 -7e-5,0.0297 0,0.0312 l -5.9375,0.9375 c -0.10856,0.88664 -0.15625,1.80294 -0.15625,2.71875 0,0.7493 0.0207,1.48859 0.0937,2.21875 l 5.9375,1.0625 c 0.42227,2.0619 1.22445,3.98752 2.34375,5.6875 l -3.53125,4.84375 c 1.01132,1.25552 2.17889,2.39862 3.4375,3.40625 l 5,-3.4375 c 1.74743,1.11472 3.69808,1.89638 5.8125,2.28125 l 0.9375,5.90625 c 0.66618,0.0606 1.34934,0.0625 2.03125,0.0625 0.96268,0 1.88223,-0.0365 2.8125,-0.15625 l 1.125,-6.03125 c 2.00756,-0.4996 3.89346,-1.36629 5.53125,-2.53125 l 4.8125,3.5 c 1.24802,-1.06179 2.38927,-2.28225 3.375,-3.59375 l -3.5,-5.0625 c 0.94785,-1.63699 1.60462,-3.44314 1.9375,-5.375 l 5.90625,-0.9375 c 0.0518,-0.61634 0.0625,-1.21408 0.0625,-1.84375 0,-1.09421 -0.12719,-2.16708 -0.28125,-3.21875 l -6,-1.09375 c -0.4702,-1.73622 -1.24168,-3.3561 -2.21875,-4.8125 l 3.53125,-4.843752 c -1.09458,-1.3386 -2.34318,-2.57518 -3.71875,-3.625 l -5.09375,3.5 c -1.464,-0.86583 -3.03947,-1.53018 -4.75,-1.90625 l -0.9375,-5.9375 c -0.8533,-0.10037 -1.71363,-0.15625 -2.59375,-0.15625 -0.23788,0 -0.48269,-0.007 -0.71875,0 -0.11509,0.004 -0.22897,-0.007 -0.34375,0 -0.0311,0.002 -0.0627,-0.002 -0.0937,0 z m 0.8125,15.187502 c 0.11416,-0.006 0.22815,0 0.34375,0 3.69912,0 6.71875,3.01963 6.71875,6.71875 0,3.69913 -3.01963,6.6875 -6.71875,6.6875 -3.69913,0 -6.6875,-2.98837 -6.6875,-6.6875 0,-3.58352 2.8046,-6.53915 6.34375,-6.71875 z"
         style="color:#000000;display:inline;overflow:visible;visibility:visible;opacity:1;fill:url(#linearGradient3281-5);fill-opacity:1;fill-rule:nonzero;stroke:#808080;stroke-width:1;stroke-linecap:butt;stroke-linejoin:miter;stroke-miterlimit:4;stroke-dasharray:none;stroke-dashoffset:0;stroke-opacity:1;marker:none;marker-start:none;marker-mid:none;marker-end:none"
         inkscape:connector-curvature="0" />
      <circle
         id="path3283-9"
         style="color:#000000;display:inline;overflow:visible;visibility:visible;opacity:0.64772728;fill:none;fill-opacity:1;fill-rule:nonzero;stroke:#ffffff;stroke-width:1;stroke-linecap:butt;stroke-linejoin:miter;stroke-miterlimit:4;stroke-dasharray:none;stroke-dashoffset:0;stroke-opacity:1;marker:none;marker-start:none;marker-mid:none;marker-end:none"
         cx="521.78967"
         cy="109.75731"
         r="7.7197142" />
      <path
         sodipodi:nodetypes="ccccccccccccccccccccccccccccccccc"
         style="color:#000000;display:inline;overflow:visible;visibility:visible;opacity:0.34659089;fill:none;fill-opacity:1;fill-rule:nonzero;stroke:#ffffff;stroke-width:0.9999997;stroke-linecap:butt;stroke-linejoin:miter;stroke-miterlimit:4;stroke-dasharray:none;stroke-dashoffset:0;stroke-opacity:1;marker:none;marker-start:none;marker-mid:none;marker-end:none"
         d="m 519.93725,89.046628 -0.87819,5.77901 c -1.67099,0.38054 -4.74472,1.54441 -6.159,2.42199 l -4.67203,-3.48719 c -1.24317,0.96516 -1.32843,1.03061 -2.32251,2.24975 l 3.37805,5.009962 c -0.96941,1.48146 -2.1338,4.12149 -2.55187,6.00809 0,0 -5.91941,0.99784 -5.91941,0.99784 -0.10175,0.83106 -0.0528,2.60979 0.0156,3.29419 l 5.65425,1.01859 c 0.39581,1.93267 1.87703,5.04359 2.92617,6.63704 l -3.57558,4.72404 c 0.94795,1.17683 1.13767,1.28452 2.3174,2.22901 l 4.78116,-3.50282 c 1.63792,1.04485 4.88904,2.31588 6.87094,2.67664 l 0.78469,5.70625 c 0.62443,0.0568 2.34948,0.21628 3.22144,0.10402 l 0.87819,-5.94015 c 1.88174,-0.46829 5.13316,-1.80296 6.6683,-2.89491 l 4.77605,3.4508 c 1.16981,-0.99525 1.18029,-1.14521 2.10424,-2.37451 l -3.5392,-5.0307 c 0.88845,-1.5344 2.03723,-4.53523 2.34924,-6.34601 l 5.79464,-0.96146 c 0.0486,-0.57772 0.0509,-2.18879 -0.0935,-3.17455 l -5.90378,-1.01859 c -0.44073,-1.62741 -1.95321,-4.55998 -2.86905,-5.9251 l 3.75235,-4.724042 c -1.02597,-1.25472 -1.40744,-1.42688 -2.6968,-2.4109 l -4.94232,3.5392 c -1.37224,-0.81158 -4.10861,-2.04875 -5.71194,-2.40125 l -0.87308,-5.65424 c -0.79982,-0.0941 -3.10739,-0.0523 -3.56448,0 z"
         id="path3285-2"
         inkscape:connector-curvature="0" />
    </g>
    <g
       id="g4826"
       transform="translate(-0.92857144,0.57142858)">
      <ellipse
         id="path3254"
         style="color:#000000;display:inline;overflow:visible;visibility:visible;opacity:0.40909089;fill:url(#radialGradient3262);fill-opacity:1;fill-rule:nonzero;stroke:none;stroke-width:1;stroke-linecap:butt;stroke-linejoin:miter;stroke-miterlimit:4;stroke-dasharray:none;stroke-dashoffset:0;stroke-opacity:1;marker:none;marker-start:none;marker-mid:none;marker-end:none"
         cx="518.52283"
         cy="188.6754"
         rx="19.622213"
         ry="6.1871843" />
      <path
         id="path3243-5"
         d="m 511.97959,153.21515 c -0.35377,0.14775 -0.68681,0.32323 -1.02876,0.48469 l -0.0242,0.008 0.725,4.93368 c -1.2801,0.78669 -2.40333,1.76576 -3.33027,2.8928 l -4.75051,-1.45242 c -0.7602,1.15153 -1.3823,2.40477 -1.86415,3.69699 l 3.96282,2.96718 c -0.38747,1.50306 -0.51614,3.11286 -0.35634,4.70401 0.002,0.007 0.008,0.0231 0.008,0.0243 l -4.37297,2.29746 c 0.14968,0.71862 0.35451,1.44429 0.59635,2.15698 0.19786,0.5831 0.40924,1.15293 0.65879,1.70188 l 4.90111,-0.74107 c 0.87309,1.49304 2.00585,2.77972 3.32578,3.80708 l -1.46892,4.70188 c 1.11855,0.70998 2.32901,1.29122 3.57453,1.74299 l 2.98325,-3.99538 c 1.6542,0.40603 3.3786,0.4992 5.12567,0.24036 l 2.2892,4.34865 c 0.53442,-0.12879 1.06658,-0.30766 1.59723,-0.48773 0.74916,-0.25421 1.4551,-0.52545 2.14742,-0.86428 l -0.7172,-4.99057 c 1.43035,-0.91892 2.66909,-2.09138 3.63598,-3.43044 l 4.6693,1.45286 c 0.69083,-1.15585 1.25666,-2.40698 1.67742,-3.68788 l -4.06053,-3.01537 c 0.30534,-1.5242 0.33949,-3.10316 0.0884,-4.69443 l 4.34866,-2.28921 c -0.12248,-0.49332 -0.27194,-0.96132 -0.43821,-1.45132 -0.28895,-0.85152 -0.67122,-1.65283 -1.06883,-2.43055 l -4.958,0.73326 c -0.82439,-1.22696 -1.85251,-2.28382 -2.99745,-3.15916 l 1.46892,-4.70189 c -1.20527,-0.75265 -2.50347,-1.38523 -3.85116,-1.83895 l -3.0397,4.06878 c -1.36792,-0.28719 -2.76936,-0.38816 -4.19981,-0.22911 l -2.29746,-4.37297 c -0.69054,0.14722 -1.37479,0.33091 -2.05971,0.56333 -0.18511,0.0628 -0.3777,0.12132 -0.55933,0.1898 -0.0885,0.0335 -0.17992,0.0554 -0.26751,0.0908 -0.0239,0.009 -0.0494,0.0145 -0.0729,0.0247 z m 4.64281,11.60429 c 0.0875,-0.0342 0.17755,-0.0602 0.26752,-0.0908 2.87865,-0.97682 6.02588,0.57566 7.0027,3.4543 0.97682,2.87865 -0.58389,6.00157 -3.46254,6.97839 -2.87865,0.97682 -5.99333,-0.55957 -6.97015,-3.43822 -0.94629,-2.78869 0.45575,-5.82935 3.16247,-6.90369 z"
         style="color:#000000;display:inline;overflow:visible;visibility:visible;opacity:1;fill:url(#linearGradient3281-8);fill-opacity:1;fill-rule:nonzero;stroke:#808080;stroke-width:0.82177913;stroke-linecap:butt;stroke-linejoin:miter;stroke-miterlimit:4;stroke-dasharray:none;stroke-dashoffset:0;stroke-opacity:1;marker:none;marker-start:none;marker-mid:none;marker-end:none"
         inkscape:connector-curvature="0" />
      <circle
         transform="matrix(0.94696485,-0.32133716,0.32133716,0.94696485,0,0)"
         id="path3283-5"
         style="color:#000000;display:inline;overflow:visible;visibility:visible;opacity:0.64772728;fill:none;fill-opacity:1;fill-rule:nonzero;stroke:#ffffff;stroke-width:0.82177913;stroke-linecap:butt;stroke-linejoin:miter;stroke-miterlimit:4;stroke-dasharray:none;stroke-dashoffset:0;stroke-opacity:1;marker:none;marker-start:none;marker-mid:none;marker-end:none"
         cx="436.54639"
         cy="327.59787"
         r="6.3438997" />
      <path
         sodipodi:nodetypes="ccccccccccccccccccccccccccccccccc"
         style="color:#000000;display:inline;overflow:visible;visibility:visible;opacity:0.34659089;fill:none;fill-opacity:1;fill-rule:nonzero;stroke:#ffffff;stroke-width:0.82177883;stroke-linecap:butt;stroke-linejoin:miter;stroke-miterlimit:4;stroke-dasharray:none;stroke-dashoffset:0;stroke-opacity:1;marker:none;marker-start:none;marker-mid:none;marker-end:none"
         d="m 511.75287,154.31727 0.84266,4.7291 c -1.19989,0.7374 -3.2845,2.45478 -4.15335,3.51119 l -4.55661,-1.47998 c -0.71257,1.07936 -0.76162,1.1528 -1.21328,2.36404 l 3.95176,3.00669 c -0.3632,1.40886 -0.57217,3.7708 -0.39932,5.34934 0,0 -4.34296,2.33965 -4.34296,2.33965 0.14033,0.67359 0.64806,2.04487 0.88205,2.55939 l 4.66909,-0.70044 c 0.81838,1.39948 2.79255,3.42924 4.02976,4.39221 l -1.53503,4.62043 c 1.04845,0.66548 1.22453,0.69919 2.392,1.12264 l 2.7957,-3.98843 c 1.55053,0.38059 4.41618,0.51119 6.05375,0.26856 l 2.11748,4.23338 c 0.50092,-0.12073 1.88546,-0.45212 2.53439,-0.76972 l -0.88521,-4.85451 c 1.3407,-0.86133 3.5185,-2.75856 4.42479,-4.01369 l 4.62796,1.4242 c 0.64753,-1.08341 0.61609,-1.20287 1.01047,-2.40349 l -4.08264,-2.98029 c 0.28621,-1.42867 0.38776,-4.06726 0.1524,-5.55879 l 4.25547,-2.2784 c -0.11473,-0.46241 -0.53842,-1.71673 -0.91108,-2.44571 l -4.86327,0.76634 c -0.77272,-1.15006 -2.72413,-3.03278 -3.79731,-3.85328 l 1.67259,-4.6671 c -1.12973,-0.70549 -1.47206,-0.73872 -2.73528,-1.16401 l -2.9115,4.0593 c -1.28219,-0.2692 -3.73832,-0.50937 -5.0791,-0.3603 l -2.17253,-4.16956 c -0.64727,0.13801 -2.43198,0.77988 -2.77387,0.94127 z"
         id="path3285-4"
         inkscape:connector-curvature="0" />
    </g>
  </g>
</svg>
