<?xml version="1.0" encoding="UTF-8" standalone="no"?>
<!-- Generator: Adobe Illustrator 19.0.0, SVG Export Plug-In . SVG Version: 6.00 Build 0)  -->

<svg
   xmlns:dc="http://purl.org/dc/elements/1.1/"
   xmlns:cc="http://creativecommons.org/ns#"
   xmlns:rdf="http://www.w3.org/1999/02/22-rdf-syntax-ns#"
   xmlns:svg="http://www.w3.org/2000/svg"
   xmlns="http://www.w3.org/2000/svg"
   xmlns:sodipodi="http://sodipodi.sourceforge.net/DTD/sodipodi-0.dtd"
   xmlns:inkscape="http://www.inkscape.org/namespaces/inkscape"
   version="1.1"
   id="Layer_1"
   x="0px"
   y="0px"
   viewBox="0 0 194.81077 197.05067"
   xml:space="preserve"
   inkscape:version="0.91 r13725"
   sodipodi:docname="melange-logo.svg"
   width="194.81078"
   height="197.05067"><metadata
     id="metadata4270"><rdf:RDF><cc:Work
         rdf:about=""><dc:format>image/svg+xml</dc:format><dc:type
           rdf:resource="http://purl.org/dc/dcmitype/StillImage" /><dc:title></dc:title></cc:Work></rdf:RDF></metadata><defs
     id="defs4268" /><sodipodi:namedview
     pagecolor="#ffffff"
     bordercolor="#666666"
     borderopacity="1"
     objecttolerance="10"
     gridtolerance="10"
     guidetolerance="10"
     inkscape:pageopacity="0"
     inkscape:pageshadow="2"
     inkscape:window-width="1920"
     inkscape:window-height="1145"
     id="namedview4266"
     showgrid="false"
     showguides="true"
     inkscape:guide-bbox="true"
     fit-margin-top="0"
     fit-margin-left="0"
     fit-margin-right="0"
     fit-margin-bottom="0"
     inkscape:zoom="1"
     inkscape:cx="33.910167"
     inkscape:cy="168.31651"
     inkscape:window-x="0"
     inkscape:window-y="27"
     inkscape:window-maximized="1"
     inkscape:current-layer="Layer_1" /><path
     style="fill:none;fill-opacity:1;stroke:#473a78;stroke-width:10.50415421;stroke-miterlimit:4;stroke-dasharray:none;stroke-opacity:1"
     d="M 82.758844,103.87357 C 93.106229,87.728269 119.36447,46.593761 142.65902,10.086882 l 0,0 c 3.27583,-5.0903948 14.55911,-6.1187426 20.69467,-3.1879236 4.83567,2.9822441 9.04739,11.7233366 6.75953,16.7623066 l -0.10352,0.20568 C 156.28256,58.317098 141.93155,90.60769 137.30386,100.83989"
     id="path4372"
     inkscape:connector-curvature="0" /><path
     style="fill:none;fill-opacity:1;stroke:#473a78;stroke-width:10.21804142;stroke-miterlimit:4;stroke-dasharray:none;stroke-opacity:1"
     d="m 160.64876,58.255156 c 18.51457,4.766979 29.05175,11.390136 29.05175,18.350772 0.12793,30.711192 -9.59863,59.734952 -27.26003,81.629332 -17.49073,21.72564 -40.57002,33.70639 -64.971752,33.70639 -50.936423,0 -92.3597073,-51.76187 -92.3597073,-115.377901 0,-7.045012 9.7693033,-13.499425 27.4733463,-18.182037 17.064093,-4.513878 40.100742,-6.960646 64.886361,-6.960646 5.204572,0 10.579822,0 15.741652,0.210933"
     id="path4230"
     inkscape:connector-curvature="0"
     sodipodi:nodetypes="cccsscsc" /><path
     style="fill:#473a78;fill-opacity:1;stroke:#473a78;stroke-width:5.10902071;stroke-miterlimit:4;stroke-dasharray:none;stroke-opacity:1"
     inkscape:connector-curvature="0"
     id="path4232"
     d="m 163.3854,115.40244 c -1.61782,-0.63779 -3.47808,0.14392 -4.16265,1.73948 -5.1411,12.32594 -12.89168,24.10375 -22.41741,34.00384 -1.21371,1.25683 -1.15979,3.25027 0.11323,4.45284 0.55476,0.55242 1.21828,0.81731 1.94119,0.87536 0.93544,0.0751 1.86224,-0.27369 2.60342,-0.97594 10.08665,-10.48988 18.27391,-22.90978 23.68852,-35.97552 0.64197,-1.59899 -0.15175,-3.44023 -1.7663,-4.12005 z" /><path
     style="fill:#473a78;fill-opacity:1;stroke:#473a78;stroke-width:1.02180409;stroke-opacity:1"
     inkscape:connector-curvature="0"
     id="path4234"
     d="m 124.81434,160.4042 c -2.67777,-0.21503 -5.49759,2.22349 -5.70463,4.80168 -0.27977,3.48405 2.19076,6.27725 4.79817,6.48663 3.52308,0.28291 6.33731,-2.08592 6.61708,-5.56998 0.20703,-2.57819 -2.18754,-5.43542 -5.71062,-5.71833 z" /><path
     style="fill:none;fill-opacity:1;fill-rule:evenodd;stroke:#473a78;stroke-width:10.21804142;stroke-linecap:round;stroke-linejoin:miter;stroke-miterlimit:4;stroke-dasharray:none;stroke-opacity:1"
     d="m 27.382724,86.32028 c 0,0 82.643016,40.19152 140.361796,0"
     id="path4575"
     inkscape:connector-curvature="0" /></svg>